<?xml version="1.0" standalone="no"?>
<!DOCTYPE svg PUBLIC "-//W3C//DTD SVG 20010904//EN"
 "http://www.w3.org/TR/2001/REC-SVG-20010904/DTD/svg10.dtd">
<svg version="1.0" xmlns="http://www.w3.org/2000/svg"
 width="1024.000000pt" height="1024.000000pt" viewBox="0 0 1024.000000 1024.000000"
 preserveAspectRatio="xMidYMid meet">

<g transform="translate(0.000000,1024.000000) scale(0.100000,-0.100000)"
fill="#000000" stroke="none">
<path d="M3231 10214 c-105 -40 -389 -183 -489 -246 -51 -32 -95 -58 -98 -58
-2 0 -41 -24 -87 -54 -322 -213 -547 -396 -815 -665 -515 -515 -867 -1058
-1105 -1706 -44 -119 -140 -437 -152 -505 -4 -19 -16 -64 -27 -100 -17 -56
-30 -75 -90 -133 -111 -109 -112 -113 -116 -426 -3 -182 -1 -266 7 -274 18
-18 13 -40 -36 -148 l-47 -104 -6 -250 -5 -250 -77 0 c-42 0 -79 -3 -82 -6 -4
-4 -5 -60 -4 -125 l3 -119 69 83 c38 46 74 81 80 79 6 -2 12 -33 14 -74 l3
-71 -70 -21 c-38 -12 -76 -21 -85 -21 -14 0 -16 -26 -16 -229 l0 -230 58 -6
c82 -9 111 -15 117 -26 3 -5 10 -34 15 -65 5 -31 23 -86 40 -123 17 -36 30
-75 30 -86 -1 -11 -4 -149 -6 -307 -4 -196 -2 -300 6 -329 19 -70 160 -193
262 -228 38 -13 57 -27 77 -56 39 -59 120 -89 226 -87 44 1 89 3 99 4 17 3 23
-9 39 -82 11 -47 21 -90 22 -96 4 -14 203 -22 782 -30 l442 -7 3 149 3 149 20
-34 c35 -58 109 -166 142 -207 17 -21 53 -66 80 -99 154 -193 386 -402 577
-520 18 -11 48 -32 67 -46 32 -25 33 -28 17 -45 -14 -16 -16 -41 -16 -149 1
-129 1 -131 -49 -290 -28 -88 -58 -192 -68 -230 l-17 -71 -88 -12 c-97 -13
-111 -17 -217 -69 -152 -75 -271 -196 -347 -353 l-41 -85 0 -125 c0 -125 0
-125 53 -280 62 -181 108 -276 196 -409 77 -117 168 -209 248 -251 103 -55
149 -60 595 -60 l403 0 0 26 c0 20 4 25 16 20 9 -3 27 -9 41 -12 15 -4 22 -12
19 -20 -5 -12 65 -14 432 -14 l437 0 65 53 c36 29 85 78 110 110 l45 57 330 0
c182 0 367 4 412 10 l82 9 98 -98 c143 -143 137 -141 397 -141 203 0 214 1
209 19 -4 16 5 19 97 25 168 12 261 33 351 81 25 14 49 22 53 18 3 -3 6 -37 6
-75 l0 -68 397 0 396 0 56 58 c83 86 115 128 171 228 72 130 105 234 126 397
16 120 16 152 5 252 -15 137 -23 170 -68 260 -70 142 -192 232 -380 277 l-93
23 -2 40 c-1 22 -2 47 -4 55 -1 8 -3 58 -5 110 -3 88 -4 84 -9 -55 l-6 -150
-1 205 c-1 113 -6 250 -12 305 -6 55 -14 134 -17 175 l-7 76 114 68 c330 199
593 487 725 791 45 104 56 141 64 218 6 50 17 119 24 152 14 58 14 55 10 -90
-3 -82 -7 -169 -9 -193 l-5 -42 125 0 125 0 0 -49 c0 -28 6 -53 13 -59 9 -8
188 -12 557 -14 l545 -3 3 37 c2 20 -3 61 -11 92 -14 53 -14 56 7 69 59 38
109 46 294 49 l142 2 0 858 0 858 -24 -10 c-32 -12 -64 -2 -71 22 -9 26 3 92
26 144 25 54 34 60 53 32 15 -21 16 -16 15 82 -1 58 -4 96 -6 85 -3 -11 -19
-37 -35 -57 -24 -30 -36 -38 -63 -38 -21 0 -35 6 -39 16 -10 27 -7 594 4 594
5 0 18 -17 29 -38 10 -20 40 -52 65 -70 l46 -33 0 455 0 456 -27 17 c-16 10
-34 24 -42 31 -7 7 -31 22 -53 33 -21 11 -41 26 -45 34 -3 8 -43 38 -89 66
-46 28 -88 58 -92 67 -5 9 -14 44 -21 77 -13 59 -83 293 -121 404 -100 287
-251 613 -395 851 -115 190 -206 319 -420 599 -122 159 -536 567 -701 691 -18
14 -93 70 -166 126 -150 113 -213 157 -343 236 -184 112 -255 152 -468 258
l-217 110 -1873 0 -1872 -1 -64 -25z m2614 -233 c165 -22 214 -31 420 -75 219
-47 522 -139 616 -186 21 -11 51 -20 67 -20 15 0 32 -4 38 -9 5 -5 63 -37 129
-70 358 -183 743 -468 1060 -785 233 -233 445 -505 581 -746 139 -247 212
-399 322 -675 31 -77 72 -214 72 -239 0 -12 -5 -27 -12 -34 -15 -15 -318 -17
-368 -2 -19 6 -80 13 -135 16 -129 7 -155 -7 -182 -93 -24 -76 -24 -319 0
-443 23 -124 30 -190 20 -190 -5 0 -15 27 -22 60 -48 217 -324 440 -544 440
-64 0 -79 4 -148 40 -115 60 -226 83 -374 77 -144 -6 -213 -23 -308 -79 -196
-114 -298 -295 -281 -499 l7 -81 -39 20 c-33 16 -242 90 -349 122 -102 31
-340 83 -458 100 -236 35 -1067 55 -1371 34 -321 -22 -467 -48 -751 -133 -54
-17 -100 -29 -100 -28 -1 1 -25 50 -54 109 -45 91 -62 114 -114 159 -93 78
-141 97 -290 110 -96 9 -135 17 -159 33 -88 55 -189 86 -323 101 -78 8 -243
-23 -316 -61 -59 -29 -161 -92 -169 -104 -11 -16 -102 -90 -110 -90 -5 0 -11
60 -12 132 l-3 133 -30 15 c-22 11 -72 15 -185 17 -85 2 -158 3 -161 3 -13 0
-27 48 -18 57 6 6 4 15 -6 23 -20 16 -333 16 -349 0 -14 -14 -114 -11 -156 4
-29 11 -35 17 -32 40 5 47 71 207 161 391 226 460 457 782 816 1139 260 258
491 437 852 659 108 66 439 234 533 271 36 13 99 39 140 56 207 88 612 203
860 246 301 51 465 63 805 59 202 -2 311 -9 430 -24z m-340 -3347 c370 -13
555 -37 810 -105 319 -85 441 -136 790 -330 170 -95 412 -299 543 -458 21 -25
46 -54 57 -66 26 -27 194 -248 209 -274 6 -10 30 -52 53 -93 64 -113 120 -248
157 -379 19 -65 32 -119 30 -119 -2 0 -15 25 -29 56 -48 108 -196 269 -335
363 -89 60 -158 95 -280 144 -144 57 -234 80 -425 108 -132 19 -178 21 -380
16 -126 -3 -252 -10 -280 -15 -27 -6 -84 -16 -125 -22 -210 -34 -516 -162
-670 -281 -75 -58 -85 -59 -426 -59 l-313 0 -68 44 c-205 131 -385 211 -577
256 -507 118 -1119 40 -1459 -185 -90 -60 -101 -68 -160 -118 -105 -90 -196
-229 -239 -367 -19 -63 -23 -96 -22 -205 1 -112 4 -141 27 -210 30 -92 78
-175 144 -253 49 -57 152 -148 213 -186 57 -37 188 -104 228 -117 20 -6 42
-15 47 -19 17 -13 235 -68 320 -81 179 -26 473 -9 600 36 22 7 60 19 85 25
108 28 344 161 432 242 19 18 46 42 59 54 35 30 119 123 154 169 121 162 202
338 236 518 l10 57 294 0 294 0 15 -54 c9 -30 16 -59 16 -64 0 -17 59 -161 97
-236 79 -157 227 -334 382 -455 94 -73 102 -79 181 -117 30 -15 62 -33 70 -40
55 -45 319 -118 488 -135 119 -13 344 -7 467 11 182 27 443 123 572 211 82 56
203 170 245 232 106 156 147 277 149 440 l1 82 13 -80 c17 -99 18 -225 5 -420
-22 -313 -92 -571 -229 -843 -71 -141 -243 -377 -386 -530 -77 -83 -382 -338
-418 -351 -7 -2 -25 -14 -42 -26 -16 -13 -48 -28 -70 -35 -38 -12 -64 -23
-180 -75 -122 -54 -230 -98 -283 -115 -31 -10 -88 -30 -127 -44 -136 -49 -451
-121 -705 -161 -376 -59 -798 -61 -1190 -4 -232 33 -588 117 -764 179 -45 16
-126 45 -181 64 -55 20 -109 40 -120 45 -79 39 -200 93 -253 115 -35 14 -98
49 -140 77 -42 29 -113 77 -157 107 -116 80 -228 177 -358 311 -290 301 -467
615 -552 978 -29 123 -34 160 -45 327 -15 237 9 448 77 676 111 372 341 737
663 1048 276 268 733 515 1160 626 30 8 89 23 130 34 148 40 373 70 650 86 74
4 606 -2 815 -10z m2035 -73 c121 -46 252 -188 295 -321 20 -61 24 -174 8
-231 -20 -69 -147 -239 -179 -239 -3 0 -40 36 -82 81 -117 125 -264 245 -414
341 -46 28 -48 32 -48 75 0 145 104 279 243 314 42 10 120 1 177 -20z m-4637
-54 c98 -58 133 -109 146 -213 12 -105 8 -118 -68 -171 -60 -42 -114 -85 -196
-153 -16 -14 -72 -69 -124 -122 -53 -54 -102 -98 -110 -98 -8 0 -33 15 -57 33
-98 74 -159 233 -134 347 39 176 142 310 298 387 67 33 180 28 245 -10z m5547
-1239 c0 -231 -4 -368 -9 -362 -6 5 -37 74 -71 153 -80 187 -100 226 -149 289
-23 28 -41 56 -41 61 0 5 20 22 44 37 45 29 127 104 179 163 15 17 32 31 37
31 6 0 10 -133 10 -372z m-6678 148 c77 -35 73 -22 70 -263 -3 -178 -6 -222
-20 -252 l-17 -36 -451 -3 -452 -2 -5 22 c-3 13 -6 117 -6 232 -1 114 -4 213
-8 219 -4 6 -6 23 -5 38 1 14 -3 26 -10 27 -7 1 -28 5 -45 8 -18 3 -34 5 -35
3 -1 -2 -5 -125 -8 -274 l-5 -270 -115 3 c-138 4 -148 7 -161 39 -5 13 -9 121
-9 239 0 184 2 218 17 240 9 14 25 29 34 32 10 4 284 8 608 10 501 2 596 0
623 -12z m7605 -68 c-4 -46 -7 -170 -7 -275 l0 -193 -444 0 -443 0 -5 168 c-3
92 -3 213 0 269 l5 103 286 3 c157 1 360 3 450 5 l164 2 -6 -82z m79 74 c-3
-5 -6 -50 -7 -101 -2 -51 -6 -94 -10 -96 -3 -3 -7 36 -8 86 -1 49 -5 97 -8
105 -3 9 2 14 17 14 11 0 19 -4 16 -8z m310 -26 c24 -27 24 -30 24 -242 0
-232 -6 -265 -52 -278 -30 -8 -222 -8 -242 0 -14 5 -16 39 -16 273 0 147 3
271 8 275 4 5 63 6 131 4 120 -4 124 -5 147 -32z m-7467 -8 c-7 -13 -28 -48
-47 -78 l-35 -55 -13 50 c-23 87 -21 93 34 98 26 2 53 4 60 5 10 2 10 -3 1
-20z m7151 -232 c0 -3 -4 -8 -10 -11 -5 -3 -10 -1 -10 4 0 6 5 11 10 11 6 0
10 -2 10 -4z m-7563 -103 c-2 -16 -4 -5 -4 22 0 28 2 40 4 28 2 -13 2 -35 0
-50z m2146 -133 c48 -64 61 -93 30 -69 -16 13 -17 12 -4 -4 8 -9 16 -15 19
-13 7 7 35 -32 57 -79 13 -26 19 -63 20 -107 0 -93 -43 -174 -145 -271 l-74
-71 -7 33 c-4 19 -16 45 -28 60 -83 106 -113 225 -85 336 22 86 131 261 157
252 7 -2 33 -32 60 -67z m2505 48 c5 -7 12 -41 14 -76 5 -70 14 -82 64 -82 17
0 42 -9 56 -19 23 -19 25 -25 25 -131 1 -130 -8 -143 -62 -89 -40 39 -43 55
-15 62 25 6 27 29 3 25 -13 -2 -19 5 -21 25 -2 17 1 27 10 27 8 0 6 5 -5 11
-24 14 -11 30 19 23 17 -4 24 -2 24 8 0 22 -68 38 -156 37 -88 -1 -126 -9
-132 -27 -2 -8 13 -12 55 -12 51 -1 56 -2 40 -14 -11 -9 -14 -17 -8 -20 21
-13 -2 -34 -45 -41 -30 -4 -44 -11 -44 -22 0 -12 6 -14 28 -8 15 3 29 11 30
16 2 5 12 9 23 9 14 0 19 -7 19 -26 0 -25 -2 -26 -40 -21 -27 3 -43 1 -51 -10
-10 -11 -8 -15 9 -20 20 -5 19 -7 -15 -34 -27 -22 -38 -26 -45 -17 -11 19 -10
202 2 234 9 23 15 26 40 20 23 -4 32 -1 40 14 6 11 17 20 24 20 8 0 13 14 14
38 2 38 11 91 19 105 7 12 70 8 81 -5z m20 -214 c36 -10 25 -24 -20 -25 l-43
0 40 -19 40 -19 -33 0 c-32 -1 -38 -21 -6 -21 9 0 21 -6 28 -13 22 -22 6 -37
-40 -37 l-44 0 0 70 c0 70 0 70 28 70 15 0 37 -3 50 -6z m1631 -68 c2 -45 -6
-27 -12 29 -4 34 -3 42 3 25 4 -14 8 -38 9 -54z m-1666 -103 c-13 -2 -33 -2
-45 0 -13 2 -3 4 22 4 25 0 35 -2 23 -4z m79 -50 c32 -16 58 -31 58 -35 0 -7
-65 -28 -87 -28 -7 0 -13 -12 -13 -26 0 -39 -21 -117 -36 -133 -17 -18 -32 -6
-75 60 -24 38 -30 56 -25 79 5 27 3 30 -22 30 -45 0 -55 13 -30 38 54 50 142
56 230 15z m-6375 -95 c-3 -7 -5 -2 -5 12 0 14 2 19 5 13 2 -7 2 -19 0 -25z
m4952 -3054 c2 -2 -11 -23 -29 -46 -36 -44 -64 -127 -53 -155 10 -26 36 -53
45 -47 4 3 8 16 8 30 0 29 32 64 59 64 30 0 56 -49 57 -110 3 -94 4 -99 15
-71 5 13 9 53 8 90 0 38 5 80 14 100 12 28 12 38 1 61 -8 15 -17 41 -20 59
l-7 32 84 -6 c131 -10 260 -25 302 -36 38 -10 48 -25 22 -35 -17 -7 -46 -67
-76 -159 -26 -79 -49 -231 -49 -327 0 -101 47 -287 100 -393 22 -44 40 -85 40
-91 0 -18 -99 -23 -551 -30 -374 -6 -421 -5 -467 10 -76 26 -79 34 -34 102 66
100 86 146 123 282 41 152 35 266 -26 511 -19 77 -35 149 -35 160 0 21 3 21
233 14 127 -3 234 -7 236 -9z m80 -16 c11 -28 4 -36 -36 -44 -33 -7 -34 -2
-17 54 6 21 44 14 53 -10z m150 -1104 c9 -9 -485 -3 -499 6 -10 6 73 8 240 4
140 -3 257 -8 259 -10z"/>
<path d="M5116 4059 c-330 -55 -339 -271 -16 -377 139 -46 347 -52 500 -17 90
21 121 38 169 90 35 38 41 51 41 90 0 39 -5 50 -42 88 -51 52 -165 103 -278
123 -82 15 -296 17 -374 3z"/>
<path d="M5554 3476 c-4 -17 -15 -27 -35 -31 -28 -6 -39 -28 -20 -39 15 -9 1
-45 -15 -39 -8 3 -14 0 -14 -6 0 -6 7 -11 16 -11 8 0 22 -7 30 -15 25 -24 63
-18 100 17 19 18 34 37 34 42 0 6 -12 20 -27 32 -25 20 -26 25 -15 43 17 29
16 31 -18 31 -23 0 -31 -5 -36 -24z"/>
<path d="M3970 4918 c0 -8 -13 -33 -28 -54 -95 -131 -105 -267 -29 -381 37
-56 67 -65 102 -33 34 32 78 138 78 185 -1 55 -40 163 -92 253 -25 43 -31 49
-31 30z m34 -73 c10 -15 14 -34 11 -46 -4 -12 -1 -21 9 -25 15 -6 13 -24 -3
-24 -11 0 -31 46 -31 70 0 11 -5 20 -11 20 -6 0 -8 -9 -4 -20 8 -25 -10 -50
-36 -50 -14 0 -19 -7 -18 -27 2 -24 2 -25 6 -5 4 18 11 22 38 22 27 0 38 -6
50 -27 8 -16 14 -20 13 -11 -6 36 18 17 30 -24 15 -51 11 -89 -17 -150 -22
-48 -51 -81 -51 -57 0 10 -3 10 -12 1 -17 -17 -26 -15 -39 10 -10 18 -9 20 5
15 22 -9 20 -1 -11 40 -22 29 -28 47 -28 87 0 28 -3 54 -8 57 -17 13 58 169
82 169 5 0 16 -11 25 -25z m-117 -217 c-2 -13 -4 -5 -4 17 -1 22 1 32 4 23 2
-10 2 -28 0 -40z m28 -78 c3 -5 1 -10 -4 -10 -6 0 -11 5 -11 10 0 6 2 10 4 10
3 0 8 -4 11 -10z"/>
<path d="M3942 4800 c-7 -11 -8 -20 -2 -20 5 0 14 9 20 20 6 11 7 20 3 20 -5
0 -14 -9 -21 -20z"/>
<path d="M3960 4720 c0 -5 5 -10 10 -10 6 0 10 5 10 10 0 6 -4 10 -10 10 -5 0
-10 -4 -10 -10z"/>
<path d="M3995 4520 c-3 -5 -1 -10 4 -10 6 0 11 5 11 10 0 6 -2 10 -4 10 -3 0
-8 -4 -11 -10z"/>
<path d="M6362 4703 c4 -17 22 -19 56 -8 23 8 2 25 -29 25 -24 0 -30 -4 -27
-17z"/>
<path d="M6620 4680 c0 -5 9 -10 20 -10 11 0 20 5 20 10 0 6 -9 10 -20 10 -11
0 -20 -4 -20 -10z"/>
<path d="M5230 1034 c0 -28 3 -35 15 -30 8 3 15 1 15 -4 0 -6 -4 -10 -10 -10
-5 0 -10 -7 -10 -15 0 -22 17 -19 23 4 5 22 -14 91 -25 91 -5 0 -8 -16 -8 -36z"/>
<path d="M5500 870 c-8 -5 -43 -18 -77 -30 -35 -13 -63 -27 -63 -32 0 -6 10
-7 23 -3 12 3 40 11 62 16 45 11 85 34 85 49 0 12 -10 12 -30 0z"/>
<path d="M5261 863 c0 -4 4 -17 9 -28 8 -19 9 -19 9 2 1 12 -3 25 -9 28 -5 3
-10 3 -9 -2z"/>
<path d="M10080 80 l0 -80 80 0 80 0 0 80 0 80 -80 0 -80 0 0 -80z"/>
</g>
</svg>
